<?xml version="1.0" encoding="UTF-8"?>
<svg version="1.1" xmlns="http://www.w3.org/2000/svg" width="512" height="512">
<path d="M0 0 C1.89843586 0.00905822 3.79687349 0.01775015 5.6953125 0.02612305 C10.11337703 0.04934762 14.53126119 0.08266348 18.94921875 0.12109375 C24.95178919 0.17303099 30.9543341 0.21215092 36.95703125 0.24609375 C45.19066733 0.29328293 53.42410621 0.35418329 61.657547 0.42803478 C66.28860982 0.46951954 70.91960557 0.50672556 75.55078125 0.53311157 C79.97214886 0.55889393 84.39315609 0.59934331 88.81430054 0.65049744 C90.46466744 0.66720049 92.1150941 0.6788516 93.76553345 0.68516541 C96.04849494 0.6947808 98.33054483 0.72274657 100.61328125 0.75512695 C101.90016846 0.76623001 103.18705566 0.77733307 104.51293945 0.78877258 C108.3331909 1.22559866 110.74822081 2.16014951 114 4.1875 C116.48534239 7.91551358 116.65747809 10.86802183 116 15.1875 C114.90026553 18.00377654 113.54606949 20.59231193 112 23.1875 C112.86568604 23.44885742 113.73137207 23.71021484 114.62329102 23.97949219 C118.03136688 25.19872141 120.90111614 26.6990971 124.02734375 28.515625 C125.14947266 29.14984375 126.27160156 29.7840625 127.42773438 30.4375 C129.18927713 31.43692897 130.94593254 32.4424439 132.69311523 33.46679688 C134.39693081 34.46182326 136.1182814 35.4266291 137.83984375 36.390625 C138.85425537 36.97489258 139.86866699 37.55916016 140.91381836 38.16113281 C144.39123948 39.31761397 145.60300254 38.73703482 148.97155094 37.6870327 C152.7384664 36.75937941 156.54443935 36.90162029 160.40429688 36.9128418 C161.32066422 36.90773087 162.23703156 36.90261993 163.1811676 36.89735413 C166.1937625 36.88351601 169.2061272 36.88441028 172.21875 36.88671875 C174.32190027 36.8828292 176.42504976 36.878494 178.52819824 36.87373352 C182.92946931 36.86628415 187.33066013 36.8665537 191.73193359 36.87182617 C197.3642099 36.87762499 202.99615781 36.86067346 208.62837982 36.8374815 C212.96931876 36.82273247 217.31017875 36.82187396 221.65113831 36.82499123 C223.72751008 36.8244788 225.80388637 36.81925587 227.88023376 36.80917931 C230.78560611 36.79680702 233.69034056 36.80361103 236.59570312 36.81518555 C237.44785904 36.80754181 238.30001495 36.79989807 239.17799377 36.79202271 C244.51582905 36.83889157 248.2970125 37.58904215 253 40.1875 C255.89637152 44.95249831 256.99966433 49.68429739 256 55.1875 C253.18473123 64.02843176 246.56238291 71.49371144 241.13671875 78.8671875 C238.7744379 82.09043474 236.54252558 85.35077351 234.4375 88.75 C231.34285307 93.73582006 228.0426779 98.56229757 224.6875 103.375 C224.15890381 104.14336182 223.63030762 104.91172363 223.08569336 105.70336914 C222.33751343 106.76865845 222.33751343 106.76865845 221.57421875 107.85546875 C220.90265747 108.81876099 220.90265747 108.81876099 220.2175293 109.80151367 C219.61485229 110.4875769 219.61485229 110.4875769 219 111.1875 C218.34 111.1875 217.68 111.1875 217 111.1875 C217.43062744 111.77015625 217.86125488 112.3528125 218.30493164 112.953125 C222.97261824 119.42164997 226.80809028 126.09261876 230.4375 133.1875 C231.24864258 134.74017578 231.24864258 134.74017578 232.07617188 136.32421875 C236 143.91392423 236 143.91392423 236 146.1875 C236.86882812 146.21328125 237.73765625 146.2390625 238.6328125 146.265625 C250.27854683 146.83879313 250.27854683 146.83879313 255 151.1875 C259.16004339 155.92134248 259.28299254 160.31558067 259.21875 166.39453125 C258.82613824 171.40734206 257.21308075 174.75385911 253.9375 178.625 C252 180.1875 252 180.1875 250 180.1875 C250.16604736 180.81503174 250.33209473 181.44256348 250.50317383 182.08911133 C255.81886606 202.33225563 260.0983824 222.41137851 260.203125 243.41796875 C260.21013931 244.36299255 260.21715363 245.30801636 260.22438049 246.28167725 C260.24178359 249.31283387 260.24823225 252.34379526 260.25 255.375 C260.25101212 256.92708664 260.25101212 256.92708664 260.25204468 258.51052856 C260.23667771 273.31552536 259.86924317 287.62278465 257 302.1875 C256.76651855 303.50476074 256.76651855 303.50476074 256.52832031 304.84863281 C250.37091872 339.49477073 236.91772335 377.64072939 213.97265625 404.828125 C211.82644744 407.39507573 209.85437695 410.05250656 207.875 412.75 C195.74980109 428.99398398 183.11210781 442.87405487 167 455.1875 C165.53239562 456.31490052 164.06495243 457.44251089 162.59765625 458.5703125 C159.06612077 461.28025822 155.53421916 463.98959687 151.984375 466.67553711 C150.68336992 467.66681718 149.39126509 468.66991298 148.109375 469.68579102 C142.65852821 473.94009351 136.84088387 477.24590569 130.75 480.5 C129.68934326 481.06686523 128.62868652 481.63373047 127.53588867 482.21777344 C88.98452945 502.6098163 47.91743116 512.6618414 4.375 512.5 C3.35775848 512.49817719 2.34051697 512.49635437 1.29244995 512.49447632 C-13.34585313 512.45028228 -27.60031627 512.02423201 -42 509.1875 C-43.31726074 508.95401855 -43.31726074 508.95401855 -44.66113281 508.71582031 C-79.30727073 502.55841872 -117.45322939 489.10522335 -144.640625 466.16015625 C-147.20757573 464.01394744 -149.86500656 462.04187695 -152.5625 460.0625 C-168.80648398 447.93730109 -182.68655487 435.29960781 -195 419.1875 C-196.12740052 417.71989562 -197.25501089 416.25245243 -198.3828125 414.78515625 C-201.09275822 411.25362077 -203.80209687 407.72171916 -206.48803711 404.171875 C-207.47931718 402.87086992 -208.48241298 401.57876509 -209.49829102 400.296875 C-213.75259351 394.84602821 -217.05840569 389.02838387 -220.3125 382.9375 C-220.87936523 381.87684326 -221.44623047 380.81618652 -222.03027344 379.72338867 C-242.4223163 341.17202945 -252.4743414 300.10493116 -252.3125 256.5625 C-252.31067719 255.54525848 -252.30885437 254.52801697 -252.30697632 253.47994995 C-252.26278228 238.84164687 -251.83673201 224.58718373 -249 210.1875 C-248.8443457 209.30932617 -248.68869141 208.43115234 -248.52832031 207.52636719 C-242.37091872 172.88022927 -228.91772335 134.73427061 -205.97265625 107.546875 C-203.82644744 104.97992427 -201.85437695 102.32249344 -199.875 99.625 C-187.74980109 83.38101602 -175.11210781 69.50094513 -159 57.1875 C-157.53239562 56.06009948 -156.06495243 54.93248911 -154.59765625 53.8046875 C-151.06612077 51.09474178 -147.53421916 48.38540313 -143.984375 45.69946289 C-142.68336992 44.70818282 -141.39126509 43.70508702 -140.109375 42.68920898 C-134.65852821 38.43490649 -128.84088387 35.12909431 -122.75 31.875 C-121.68934326 31.30813477 -120.62868652 30.74126953 -119.53588867 30.15722656 C-82.38016403 10.50341552 -42.10437871 -0.33505192 0 0 Z " fill="#FECB4C" transform="translate(252,-0.1875)"/>
<path d="M0 0 C0.91622131 -0.00511093 1.83244263 -0.01022186 2.77642822 -0.01548767 C5.79446 -0.02934757 8.81226251 -0.02842968 11.83032227 -0.02612305 C13.93490178 -0.03001179 16.03948051 -0.03434683 18.14405823 -0.03910828 C22.55130561 -0.04656262 26.95847286 -0.04628476 31.36572266 -0.04101562 C37.00587469 -0.03522032 42.64569841 -0.05215744 48.28579617 -0.0753603 C52.63102629 -0.09011069 56.97617757 -0.09096758 61.3214283 -0.08785057 C63.40059116 -0.08836307 65.47975851 -0.09358731 67.55889702 -0.10366249 C70.46916769 -0.11603551 73.37880158 -0.10922999 76.2890625 -0.09765625 C77.14278946 -0.10529999 77.99651642 -0.11294373 78.87611389 -0.12081909 C84.21810462 -0.07399844 88.00286616 0.67348519 92.70922852 3.2746582 C95.60560004 8.03965652 96.70889284 12.77145559 95.70922852 18.2746582 C92.89395974 27.11558996 86.27161143 34.58086964 80.84594727 41.9543457 C78.48366641 45.17759294 76.25175409 48.43793172 74.14672852 51.8371582 C71.05208158 56.82297826 67.75190641 61.64945578 64.39672852 66.4621582 C63.86813232 67.23052002 63.33953613 67.99888184 62.79492188 68.79052734 C62.29613525 69.50072021 61.79734863 70.21091309 61.28344727 70.94262695 C60.61188599 71.90591919 60.61188599 71.90591919 59.92675781 72.88867188 C59.52497314 73.34604736 59.12318848 73.80342285 58.70922852 74.2746582 C58.04922852 74.2746582 57.38922852 74.2746582 56.70922852 74.2746582 C57.13985596 74.85731445 57.5704834 75.4399707 58.01416016 76.0402832 C62.68184676 82.50880817 66.51731879 89.17977696 70.14672852 96.2746582 C70.68749023 97.30977539 71.22825195 98.34489258 71.78540039 99.41137695 C75.70922852 107.00108243 75.70922852 107.00108243 75.70922852 109.2746582 C76.57805664 109.30043945 77.44688477 109.3262207 78.34204102 109.3527832 C89.98777535 109.92595134 89.98777535 109.92595134 94.70922852 114.2746582 C98.86927191 119.00850068 98.99222106 123.40273888 98.92797852 129.48168945 C98.54203877 134.40931297 96.91012536 137.70106924 93.89672852 141.6496582 C88.98091862 145.30140269 82.02843477 144.4229397 76.14306641 144.41992188 C75.19758438 144.42328049 74.25210236 144.4266391 73.27796936 144.43009949 C70.16259435 144.43957332 67.04727327 144.44155068 63.93188477 144.44262695 C61.76004515 144.44584156 59.58820574 144.44920579 57.41636658 144.45271301 C52.86790464 144.45869503 48.31946168 144.46055382 43.77099609 144.45996094 C37.94931888 144.45985926 32.12776349 144.473521 26.30611515 144.49073315 C21.82192935 144.5018624 17.33777295 144.50387987 12.85357475 144.50335121 C10.70742815 144.50452956 8.56128075 144.50894319 6.41514778 144.51668358 C3.41160713 144.52650382 0.40833025 144.52359751 -2.59521484 144.51757812 C-3.47699402 144.52319763 -4.35877319 144.52881714 -5.26727295 144.53460693 C-10.32024505 144.50893324 -14.53987458 144.05646792 -19.29077148 142.2746582 C-23.44723832 137.89942996 -24.73706002 134.78964811 -24.61914062 128.87207031 C-23.684465 121.4787514 -17.60663505 114.62112039 -13.35327148 108.7121582 C-12.60400391 107.65738281 -12.60400391 107.65738281 -11.83959961 106.58129883 C-8.79243117 102.30739935 -5.6710865 98.09680547 -2.48779297 93.92333984 C-1.2236736 92.27680255 -1.2236736 92.27680255 -0.29077148 90.2746582 C0.36922852 90.2746582 1.02922852 90.2746582 1.70922852 90.2746582 C1.92836914 89.60950195 2.14750977 88.9443457 2.37329102 88.2590332 C4.14247975 84.30681042 6.55164064 81.02249958 9.08422852 77.5246582 C10.17283636 76.00126799 11.26137611 74.47782911 12.34985352 72.9543457 C13.18613281 71.78983887 13.18613281 71.78983887 14.03930664 70.60180664 C16.65180708 66.96111159 19.24463218 63.30666311 21.83422852 59.6496582 C22.27557129 59.03123047 22.71691406 58.41280273 23.17163086 57.77563477 C28.17677686 50.7169571 32.92698548 43.48515381 37.70922852 36.2746582 C37.13817383 36.28354065 36.56711914 36.2924231 35.97875977 36.30157471 C30.00864725 36.3904086 24.03872402 36.45054126 18.06811523 36.49438477 C15.84310269 36.51443867 13.61814245 36.54168885 11.39331055 36.57641602 C8.18598487 36.62520755 4.979359 36.64768982 1.77172852 36.6652832 C0.78495117 36.68592834 -0.20182617 36.70657349 -1.21850586 36.72784424 C-8.17634103 36.73007966 -13.66994119 35.55335117 -18.93725586 30.78375244 C-22.32123475 27.16706397 -22.68218853 23.55766885 -22.85327148 18.7121582 C-22.64760103 13.4373159 -21.90413417 10.30097663 -18.29077148 6.2746582 C-17.83702148 5.5321582 -17.38327148 4.7896582 -16.91577148 4.0246582 C-12.60880837 -0.61360977 -5.8525956 -0.01694338 0 0 Z " fill="#2B6796" transform="translate(412.290771484375,36.725341796875)"/>
<path d="M0 0 C0.68374191 -0.00525696 1.36748383 -0.01051392 2.07194519 -0.01593018 C4.31577898 -0.02905578 6.55889428 -0.02041917 8.80273438 -0.01025391 C10.3716241 -0.01227679 11.9405129 -0.01519002 13.50939941 -0.01895142 C16.79102568 -0.02336467 20.07240629 -0.01697611 23.35400391 -0.00292969 C27.5504741 0.01416181 31.74636859 0.00431523 35.94281769 -0.01364708 C39.18056539 -0.02451205 42.41817768 -0.02102619 45.65592957 -0.0132637 C47.20281544 -0.01126919 48.7497138 -0.01369457 50.29658508 -0.02070236 C52.46237538 -0.02836191 54.62724652 -0.01665118 56.79296875 0 C58.63779846 0.00358017 58.63779846 0.00358017 60.51989746 0.00723267 C64.28867098 0.4324306 66.68413211 1.3953273 69.89648438 3.38818359 C72.38073772 7.11456361 72.54050868 10.07083551 71.89648438 14.38818359 C70.46765348 18.14948438 68.49797321 20.80722339 65.60742188 23.59912109 C62.37050367 26.92932224 59.83529414 30.50860799 57.20898438 34.32568359 C56.14161475 35.85716972 55.07390176 37.38841658 54.00585938 38.91943359 C53.47927734 39.67740234 52.95269531 40.43537109 52.41015625 41.21630859 C50.28250313 44.26914765 48.12485135 47.29988589 45.95898438 50.32568359 C45.56670654 50.87474365 45.17442871 51.42380371 44.77026367 51.98950195 C42.36593714 55.35017664 39.94849296 58.70117882 37.52539062 62.04833984 C36.9445874 62.85086182 36.36378418 63.65338379 35.76538086 64.48022461 C34.63189914 66.04532754 33.49735476 67.60966162 32.36157227 69.1730957 C31.83942139 69.89376221 31.31727051 70.61442871 30.77929688 71.35693359 C30.3192627 71.99050781 29.85922852 72.62408203 29.38525391 73.27685547 C27.50299041 75.94622488 25.69981175 78.66504797 23.89648438 81.38818359 C25.66693115 81.41005737 25.66693115 81.41005737 27.47314453 81.43237305 C31.86797813 81.49051056 36.26230764 81.5677424 40.65673828 81.65063477 C42.55574336 81.68381152 44.45484533 81.7118659 46.35400391 81.73461914 C49.08993672 81.76829877 51.82498748 81.8206208 54.56054688 81.87646484 C55.40453033 81.88285477 56.24851379 81.88924469 57.11807251 81.89582825 C63.30163061 82.04875412 67.54290896 83.28235296 72.27148438 87.51318359 C74.5402527 91.52715833 74.82665692 94.88042434 73.89648438 99.38818359 C72.4993737 101.94495136 71.06195955 103.32113911 68.89648438 105.38818359 C68.33073196 105.92833603 67.76497955 106.46848846 67.18208313 107.02500916 C64.03484951 108.90207896 61.13841879 108.83104048 57.5769043 108.82397461 C56.48098717 108.83908836 56.48098717 108.83908836 55.3629303 108.85450745 C52.95078162 108.88297236 50.53925924 108.88886347 48.12695312 108.89208984 C46.4454981 108.90173334 44.76404559 108.911826 43.08259583 108.92234802 C39.55785287 108.94030663 36.0333304 108.94586948 32.50854492 108.9440918 C28.00233179 108.94378726 23.49754042 108.98471063 18.99166393 109.03640842 C15.51794507 109.06984862 12.04456682 109.07584702 8.57070351 109.07426262 C6.91016052 109.07779223 5.24960773 109.09100317 3.58922386 109.11425972 C-11.01089621 109.29958606 -11.01089621 109.29958606 -15.62988281 105.52368164 C-18.31929988 102.11466235 -18.9956791 100.89705662 -18.54101562 96.63818359 C-17.65400496 90.82648973 -15.52611138 87.68909241 -11.66210938 83.38427734 C-8.41903936 79.58666712 -5.69521453 75.53149042 -2.91601562 71.38818359 C3.00683186 62.62959041 9.1450241 54.04743666 15.36523438 45.49853516 C17.78726554 42.160519 20.18738413 38.80698535 22.58398438 35.45068359 C22.99414795 34.87729248 23.40431152 34.30390137 23.8269043 33.71313477 C25.55422922 31.2934051 27.2471189 28.86223181 28.89648438 26.38818359 C27.22477173 26.43531494 27.22477173 26.43531494 25.51928711 26.48339844 C21.36170668 26.59247037 17.20425113 26.66104983 13.0456543 26.71777344 C11.25019016 26.74784063 9.45487163 26.788707 7.65991211 26.84082031 C5.07043464 26.91408708 2.48290738 26.9477385 -0.10742188 26.97412109 C-1.3000338 27.02057266 -1.3000338 27.02057266 -2.51673889 27.06796265 C-8.03527563 27.07125221 -10.79424906 25.66731431 -14.7908783 21.87539673 C-17.75059237 18.52205187 -17.43649718 15.15503927 -17.38085938 10.86474609 C-16.98032746 7.28816534 -15.7974199 5.72762678 -13.10351562 3.38818359 C-8.56901247 0.69772196 -5.24858671 0.01018567 0 0 Z " fill="#2D6895" transform="translate(296.103515625,0.61181640625)"/>
<path d="M0 0 C9.10489347 6.64367668 15.21016154 16.40893589 17.2109375 27.61328125 C18.41029717 40.24403779 15.19038958 51.72188221 7.2109375 61.61328125 C6.75589844 62.21527344 6.30085938 62.81726563 5.83203125 63.4375 C-0.80205626 71.1455129 -11.06024641 76.40150607 -21.1484375 77.2578125 C-33.95538267 77.75693171 -43.67661674 75.91885779 -53.69140625 67.58203125 C-62.36056883 59.44561051 -67.971213 48.85095838 -69.02734375 36.921875 C-69.32133471 25.54906686 -66.21109078 15.35898336 -58.7890625 6.61328125 C-41.95868745 -10.32515399 -20.41128684 -13.31027281 0 0 Z " fill="#674600" transform="translate(281.7890625,335.38671875)"/>
<path d="M0 0 C1.96730324 -0.01441132 1.96730324 -0.01441132 3.97434998 -0.02911377 C5.4126671 -0.03396098 6.85098624 -0.03824 8.28930664 -0.04199219 C9.75899763 -0.047743 11.22868858 -0.05350075 12.69837952 -0.05926514 C15.78101959 -0.0697747 18.86363359 -0.07561786 21.94628906 -0.07910156 C25.89874287 -0.08459066 29.85085293 -0.10862735 33.80319881 -0.13707352 C36.8392081 -0.15568382 39.87513424 -0.16090459 42.91119576 -0.16243744 C44.36847376 -0.16546743 45.82575019 -0.17350766 47.28297234 -0.18662262 C49.32008954 -0.20364996 51.35734819 -0.19996287 53.39453125 -0.1953125 C54.55431992 -0.19895813 55.71410858 -0.20260376 56.90904236 -0.20635986 C59.76196289 0.16113281 59.76196289 0.16113281 61.62623596 1.56622314 C63.51422974 4.21754668 63.41818489 6.41300565 63.28540039 9.59472656 C61.38884447 18.89351194 52.67374439 27.38267228 47.01586914 34.84082031 C43.64205098 39.30042978 40.34816236 43.81518432 37.07446289 48.34863281 C36.57672363 49.03578369 36.07898438 49.72293457 35.56616211 50.4309082 C30.87194955 56.94319432 26.31813468 63.5519774 21.76196289 70.16113281 C22.88691162 70.13494873 24.01186035 70.10876465 25.17089844 70.08178711 C29.35461446 69.99111536 33.53824411 69.93382244 37.72265625 69.88647461 C39.53172421 69.86136891 41.34069111 69.82727686 43.14941406 69.78393555 C45.7535904 69.72310703 48.3564232 69.69488472 50.96118164 69.67285156 C51.76657883 69.64704514 52.57197601 69.62123871 53.40177917 69.59465027 C57.71326847 69.59250898 59.26573805 69.761582 62.74951172 72.56665039 C65.68766365 76.3545602 66.22424263 78.35342352 65.76196289 83.16113281 C63.72202381 86.81895462 62.25777027 88.83059456 58.76196289 91.16113281 C55.89126587 91.43528748 55.89126587 91.43528748 52.3503418 91.4675293 C51.70444595 91.47585281 51.05855011 91.48417633 50.39308167 91.49275208 C48.25816822 91.51684427 46.12356036 91.52562309 43.98852539 91.53222656 C42.50263376 91.54119374 41.01674305 91.5503156 39.53085327 91.55958557 C36.41548468 91.57607612 33.30022357 91.58377574 30.18481445 91.58666992 C26.19755276 91.59205303 22.21130455 91.62972802 18.22432899 91.67541409 C15.15475805 91.70519426 12.08543084 91.71239367 9.015728 91.71339607 C7.54611953 91.71759679 6.07651024 91.73002542 4.60704422 91.75091362 C2.54806828 91.77785094 0.49143672 91.77299928 -1.56762695 91.76049805 C-3.32277115 91.76810402 -3.32277115 91.76810402 -5.1133728 91.77586365 C-9.20085031 90.97171376 -10.68025854 89.38442837 -13.23803711 86.16113281 C-14.23749859 81.70199698 -14.10088582 79.63099908 -11.78881836 75.69238281 C-9.68054219 72.78441569 -7.46668302 69.9777928 -5.23803711 67.16113281 C-3.64125983 64.96089121 -2.05769659 62.75539321 -0.48803711 60.53613281 C0.35944865 59.34720918 1.2071097 58.15841048 2.05493164 56.96972656 C4.98474653 52.85071978 7.9067766 48.72623817 10.82446289 44.59863281 C11.3273584 43.88827881 11.83025391 43.1779248 12.34838867 42.44604492 C14.74796861 39.0485234 17.12598852 35.63984235 19.45336914 32.19238281 C20.07296509 31.27888062 20.07296509 31.27888062 20.70507812 30.34692383 C21.81562345 28.70416095 22.91798601 27.05587478 24.01977539 25.40722656 C24.8821582 24.29541016 24.8821582 24.29541016 25.76196289 23.16113281 C26.42196289 23.16113281 27.08196289 23.16113281 27.76196289 23.16113281 C27.76196289 22.50113281 27.76196289 21.84113281 27.76196289 21.16113281 C26.75818604 21.18731689 25.75440918 21.21350098 24.72021484 21.24047852 C20.98378937 21.33121449 17.24746054 21.38846543 13.51025391 21.43579102 C11.89517828 21.4608824 10.28021563 21.49496407 8.66552734 21.53833008 C6.33931583 21.59922567 4.0146093 21.62739405 1.68774414 21.64941406 C0.61089104 21.6881237 0.61089104 21.6881237 -0.48771667 21.72761536 C-4.42314514 21.72979994 -6.08078809 21.28607678 -9.20068359 18.80712891 C-11.58334511 15.71266689 -11.81248067 14.32079421 -11.61303711 10.47363281 C-11.57952148 9.52101563 -11.54600586 8.56839844 -11.51147461 7.58691406 C-11.23803711 5.16113281 -11.23803711 5.16113281 -10.23803711 3.16113281 C-9.57803711 3.16113281 -8.91803711 3.16113281 -8.23803711 3.16113281 C-8.23803711 2.50113281 -8.23803711 1.84113281 -8.23803711 1.16113281 C-5.44312075 -0.23632536 -3.12676487 0.01842078 0 0 Z " fill="#2D6895" transform="translate(200.238037109375,58.8388671875)"/>
<path d="M0 0 C4.25957982 0.3692515 6.63850481 1.4936432 10.34765625 3.578125 C33.25629201 15.83660669 63.89748556 17.15360347 88.63867188 10.00488281 C93.76322085 8.38918107 98.78132637 6.52285608 103.7578125 4.5 C106.78515625 3.328125 106.78515625 3.328125 108.78515625 3.328125 C108.78515625 2.668125 108.78515625 2.008125 108.78515625 1.328125 C111.87689377 -0.21774376 114.37945177 0.03452979 117.78515625 0.328125 C120.22265625 1.953125 120.22265625 1.953125 121.78515625 4.328125 C122.78798883 10.46583182 119.76722396 14.43080082 116.59765625 19.390625 C116.11490234 20.18017578 115.63214844 20.96972656 115.13476562 21.78320312 C112.3969952 26.16731066 109.59779088 29.79310939 105.78515625 33.328125 C105.06457031 34.10671875 104.34398437 34.8853125 103.6015625 35.6875 C93.62764256 46.26642375 82.98205795 52.93057587 68.78515625 56.328125 C68.14578125 56.51761719 67.50640625 56.70710938 66.84765625 56.90234375 C52.26516957 59.91274346 38.35444105 55.34996892 25.91796875 47.9140625 C25.21414062 47.39070313 24.5103125 46.86734375 23.78515625 46.328125 C23.78515625 45.668125 23.78515625 45.008125 23.78515625 44.328125 C23.21023437 44.23015625 22.6353125 44.1321875 22.04296875 44.03125 C9.95418272 40.26657615 0.76994912 22.81821084 -5.1328125 12.3984375 C-6.47106756 8.60107836 -6.17271337 6.20632882 -5.21484375 2.328125 C-3.21484375 0.328125 -3.21484375 0.328125 0 0 Z " fill="#684701" transform="translate(127.21484375,234.671875)"/>
<path d="M0 0 C3.4296875 1.42578125 3.4296875 1.42578125 6.875 3.3125 C12.16766152 6.09694244 17.18931506 8.53116231 23 10 C24.00675781 10.27714844 25.01351562 10.55429688 26.05078125 10.83984375 C44.70937493 15.18883927 66.50658438 15.15426536 85 10 C86.07765625 9.70996094 87.1553125 9.41992188 88.265625 9.12109375 C93.42998924 7.5704869 97.76700265 5.6550171 102.3125 2.75 C106.37381228 0.18152963 109.09862608 -0.98027478 114 0 C116.4375 1.625 116.4375 1.625 118 4 C118.65665374 9.29140749 116.93407602 12.70160291 114.1875 17.0625 C113.78442627 17.71299316 113.38135254 18.36348633 112.96606445 19.03369141 C105.64225881 30.54312818 97.34152714 39.36054811 86 47 C85.02417969 47.68449219 84.04835938 48.36898437 83.04296875 49.07421875 C70.1755202 57.21754627 53.36896893 58.51974661 38.63427734 55.51806641 C20.30824289 50.40431444 6.2755266 35.28513708 -4 20 C-4.51691406 19.278125 -5.03382813 18.55625 -5.56640625 17.8125 C-8.73191515 13.19500554 -10 9.64497849 -10 4 C-8.00765889 -0.98085279 -4.89401477 -0.3868985 0 0 Z " fill="#674600" transform="translate(273,235)"/>
<path d="M0 0 C0.66 0.33 1.32 0.66 2 1 C1.51853516 1.79470703 1.51853516 1.79470703 1.02734375 2.60546875 C-1.23349511 7.87502852 -1.15720935 14.95715934 0.875 20.30078125 C3.65747127 24.57516968 7.13406316 26.53769455 12 28 C15.65459831 28.45119005 19.2853909 28.48801625 22.96484375 28.51171875 C24.51480797 28.53864555 24.51480797 28.53864555 26.09608459 28.56611633 C29.37651565 28.62003226 32.65680275 28.65405541 35.9375 28.6875 C38.16994182 28.72068954 40.4023647 28.75518071 42.63476562 28.79101562 C48.08971461 28.87574783 53.54468267 28.94417654 59 29 C57.81885719 32.16011672 56.57179959 34.87195919 54.6015625 37.609375 C54.12831543 38.27275879 53.65506836 38.93614258 53.16748047 39.61962891 C52.65846191 40.32265137 52.14944336 41.02567383 51.625 41.75 C50.53639216 43.27339021 49.44785241 44.79682909 48.359375 46.3203125 C47.80185547 47.09665039 47.24433594 47.87298828 46.66992188 48.67285156 C44.05742564 52.31354076 41.46376917 55.96741489 38.875 59.625 C38.38290039 60.31811279 37.89080078 61.01122559 37.38378906 61.7253418 C34.89486627 65.24775153 32.45773766 68.79469999 30.09375 72.40234375 C29.63500488 73.10214355 29.17625977 73.80194336 28.70361328 74.52294922 C27.83594995 75.85489693 26.97464121 77.19101187 26.12060547 78.53173828 C25.1307457 80.05508037 24.07182873 81.53317463 23 83 C22.34 83 21.68 83 21 83 C20.62681641 84.07314453 20.62681641 84.07314453 20.24609375 85.16796875 C18.86616573 88.3041688 17.17280256 90.61451825 15.0625 93.3125 C11.2403124 98.30931111 7.57309682 103.38453268 4 108.5625 C3.51926025 109.2531958 3.03852051 109.9438916 2.54321289 110.65551758 C1.87213501 111.63234497 1.87213501 111.63234497 1.1875 112.62890625 C0.78917969 113.20713135 0.39085937 113.78535645 -0.01953125 114.38110352 C-2.59179875 118.62829122 -2.5730397 123.20283912 -2 128 C-0.17484439 132.01534234 0.88846489 133.58314853 5.04042053 135.14022827 C9.59847616 136.31015842 14.1086141 136.30749861 18.79077148 136.31884766 C20.22607964 136.33391609 20.22607964 136.33391609 21.69038391 136.34928894 C24.83394809 136.38002911 27.97742745 136.39713063 31.12109375 136.4140625 C33.30828069 136.43278151 35.49546047 136.45235547 37.68263245 136.4727478 C43.42495492 136.52399745 49.1673008 136.5636616 54.909729 136.60089111 C60.77516432 136.64097566 66.64050292 136.69204771 72.50585938 136.7421875 C84.00383823 136.83886196 95.5018718 136.92329391 107 137 C103.56217284 139.8017009 100.21858955 142.13975244 96.3125 144.25 C95.35988281 144.77078125 94.40726562 145.2915625 93.42578125 145.828125 C91 147 91 147 89 147 C89 147.66 89 148.32 89 149 C75.95214565 149.04636648 62.90431095 149.0818912 49.85639095 149.10362434 C43.79754155 149.11405581 37.73874857 149.12820354 31.67993164 149.15087891 C25.83145659 149.17262977 19.98303577 149.18457342 14.13452339 149.18975449 C11.90463978 149.19344619 9.67475909 149.20065516 7.44489861 149.21146011 C4.31858815 149.22600466 1.19250102 149.22797668 -1.93383789 149.22705078 C-2.85309555 149.23424133 -3.77235321 149.24143188 -4.71946716 149.24884033 C-10.82128842 149.22932102 -16.46117664 149.07114537 -21.375 145.0625 C-23.75023363 142.04778039 -24.47086935 139.03546287 -24.40625 135.21484375 C-22.94840161 127.26676647 -17.79645104 120.65623023 -12.8972168 114.484375 C-8.88083927 109.22499297 -5.39364546 103.58459977 -1.81054688 98.02539062 C-1.21693359 97.11853516 -0.62332031 96.21167969 -0.01171875 95.27734375 C0.51977783 94.45484131 1.05127441 93.63233887 1.59887695 92.78491211 C2.06124756 92.19589111 2.52361816 91.60687012 3 91 C3.66 91 4.32 91 5 91 C5.309375 90.21625 5.61875 89.4325 5.9375 88.625 C7 86 7 86 8 84 C8.66 84 9.32 84 10 84 C10.309375 83.21625 10.61875 82.4325 10.9375 81.625 C12 79 12 79 13 77 C13.66 77 14.32 77 15 77 C15.309375 76.21625 15.61875 75.4325 15.9375 74.625 C17 72 17 72 18 70 C18.66 70 19.32 70 20 70 C20.22171875 69.32453125 20.4434375 68.6490625 20.671875 67.953125 C22.38686407 64.13979636 24.72951558 61.06784947 27.25 57.75 C30.33917634 53.65106519 33.34627708 49.53055662 36.18261719 45.25097656 C36.71312683 44.45161682 37.24363647 43.65225708 37.79022217 42.82867432 C38.18944885 42.22521179 38.58867554 41.62174927 39 41 C38.43116592 41.00888245 37.86233185 41.01776489 37.27626038 41.0269165 C31.32221591 41.11584211 25.36836202 41.17592061 19.41381836 41.21972656 C17.19564137 41.239764 14.97751668 41.26700173 12.75952148 41.30175781 C9.55960128 41.35062253 6.36038326 41.37304812 3.16015625 41.390625 C2.17854019 41.41127014 1.19692413 41.43191528 0.18556213 41.45318604 C-6.88748333 41.45545866 -13.22902421 40.28326063 -18.71153259 35.50982666 C-21.95988646 32.02978034 -22.48705211 28.27348064 -22.8125 23.625 C-22.54358423 17.46116742 -20.88981145 14.20188826 -16.5 9.9375 C-12.2940398 6.67788084 -7.75560333 4.34322943 -3 2 C-2.01 1.34 -1.02 0.68 0 0 Z " fill="#FCAB34" transform="translate(391,44)"/>
<path d="M0 0 C-0.05800781 0.79664063 -0.11601562 1.59328125 -0.17578125 2.4140625 C-0.67857302 9.54058771 -0.67857302 9.54058771 2.375 15.6875 C6.6449883 19.44915636 10.02612906 19.20480348 15.5078125 19.31640625 C16.34843231 19.33718735 17.18905212 19.35796844 18.05514526 19.37937927 C20.74501235 19.44485439 23.43497843 19.5037502 26.125 19.5625 C27.94662489 19.60568716 29.76823971 19.64930152 31.58984375 19.69335938 C36.05979394 19.80053368 40.52984386 19.90180685 45 20 C43.72092638 22.6790017 42.32466897 25.09596487 40.6015625 27.51171875 C39.89217529 28.51102417 39.89217529 28.51102417 39.16845703 29.53051758 C38.65911621 30.24232178 38.14977539 30.95412598 37.625 31.6875 C36.53119321 33.22652214 35.43744478 34.76558576 34.34375 36.3046875 C33.78558594 37.08811523 33.22742188 37.87154297 32.65234375 38.67871094 C30.13390377 42.21673211 27.62915023 45.76435771 25.125 49.3125 C24.3990564 50.33923828 24.3990564 50.33923828 23.65844727 51.38671875 C20.85974266 55.34877604 18.07724577 59.32156322 15.30859375 63.3046875 C14.37345947 64.64793091 14.37345947 64.64793091 13.41943359 66.01831055 C12.21296685 67.75250735 11.0087361 69.48826262 9.80712891 71.22583008 C7.38826074 74.70070979 5.00312274 78.0587675 2.1640625 81.203125 C-0.25274925 84.32665787 -0.84035577 86.16341629 -1.1875 90.0625 C-1.30480469 91.06410156 -1.42210937 92.06570312 -1.54296875 93.09765625 C-0.89106511 96.58229228 0.49279016 97.78942027 3.22874832 99.94515038 C6.21918917 101.72607482 8.95245033 101.64162171 12.38232422 101.65942383 C13.09521103 101.66990753 13.80809784 101.68039124 14.54258728 101.69119263 C16.8804039 101.71981292 19.21672802 101.71366726 21.5546875 101.70703125 C23.18280888 101.72015434 24.810914 101.73546045 26.43899536 101.75285339 C30.71008928 101.79264547 34.98075675 101.80289004 39.25201416 101.80688477 C43.61605722 101.81622722 47.97985086 101.85364767 52.34375 101.88867188 C60.895838 101.95318865 69.44768002 101.98647707 78 102 C77.67 102.66 77.34 103.32 77 104 C76.34 104 75.68 104 75 104 C75 104.66 75 105.32 75 106 C73.35 106.33 71.7 106.66 70 107 C70 107.66 70 108.32 70 109 C65.83524824 111.00792331 62.09501903 111.30197606 57.55102539 111.30639648 C56.81866165 111.31472 56.08629791 111.32304352 55.33174133 111.33161926 C52.92032497 111.35563685 50.50917938 111.36448024 48.09765625 111.37109375 C46.41523663 111.38006489 44.7328178 111.38918683 43.05039978 111.39845276 C39.52747664 111.41492184 36.00464832 111.42263932 32.48168945 111.42553711 C27.97448927 111.43092521 23.46818347 111.46863109 18.961236 111.51428127 C15.48759221 111.5440651 12.01416374 111.55126091 8.54040337 111.55226326 C6.87904187 111.55646134 5.21767948 111.56887921 3.55644417 111.58978081 C1.22975417 111.6167306 -1.0948629 111.61186161 -3.42163086 111.59936523 C-4.10286011 111.61419952 -4.78408936 111.62903381 -5.48596191 111.64431763 C-10.99551602 111.56033092 -13.25518834 109.74291346 -17 106 C-18.53597454 102.92805092 -18.2265038 100.39755707 -18 97 C-16.5 93.5625 -16.5 93.5625 -15 91 C-14.34 91 -13.68 91 -13 91 C-12.5359375 89.824375 -12.5359375 89.824375 -12.0625 88.625 C-11 86 -11 86 -10 84 C-9.34 84 -8.68 84 -8 84 C-7.71125 83.236875 -7.4225 82.47375 -7.125 81.6875 C-6 79 -6 79 -4 76 C-3.34 76 -2.68 76 -2 76 C-1.731875 75.030625 -1.46375 74.06125 -1.1875 73.0625 C-0.795625 72.051875 -0.40375 71.04125 0 70 C1.485 69.505 1.485 69.505 3 69 C3.72191382 67.356509 4.38160322 65.68517288 5 64 C5.93432617 62.48998632 6.91777128 61.00955141 7.94140625 59.55859375 C8.52124268 58.73286865 9.1010791 57.90714355 9.69848633 57.05639648 C10.6211731 55.76004272 10.6211731 55.76004272 11.5625 54.4375 C12.18858154 53.5494165 12.81466309 52.66133301 13.4597168 51.74633789 C17.6626819 45.80838707 21.9653026 39.96152327 26.42578125 34.21484375 C28.16212113 32.0000515 28.16212113 32.0000515 29 29 C27.88028809 29.02618408 26.76057617 29.05236816 25.60693359 29.0793457 C21.43623996 29.17012872 17.26563291 29.22735061 13.09423828 29.2746582 C11.29200534 29.29973866 9.48987349 29.33381188 7.68798828 29.37719727 C5.09121723 29.4381375 2.49579535 29.46627346 -0.1015625 29.48828125 C-1.30191635 29.52699089 -1.30191635 29.52699089 -2.52651978 29.56648254 C-6.66291192 29.56853707 -9.22047088 29.24317292 -12.49365234 26.59448242 C-16.5137732 22.43299554 -16.4128989 19.38914155 -16.33203125 13.7578125 C-15.95075194 10.59095142 -14.99705298 8.54881099 -12.703125 6.28125 C-4.35365854 0 -4.35365854 0 0 0 Z " fill="#FCAB35" transform="translate(280,7)"/>
<path d="M0 0 C0.99 0.33 1.98 0.66 3 1 C2.93039063 2.12148437 2.93039063 2.12148437 2.859375 3.265625 C2.82328125 4.25046875 2.7871875 5.2353125 2.75 6.25 C2.68039063 7.71179688 2.68039063 7.71179688 2.609375 9.203125 C3.12273966 12.878816 4.05254288 13.77189058 7 16 C9.73710477 16.41792995 12.08986105 16.60472211 14.828125 16.609375 C15.95163361 16.63417938 15.95163361 16.63417938 17.09783936 16.65948486 C19.48197654 16.7079351 21.86547611 16.72932772 24.25 16.75 C25.86982369 16.7781624 27.48961772 16.80809022 29.109375 16.83984375 C33.07286414 16.91369244 37.03599998 16.96328457 41 17 C41 17.66 41 18.32 41 19 C40.34 19 39.68 19 39 19 C38.66935547 20.01707031 38.66935547 20.01707031 38.33203125 21.0546875 C36.61175292 24.85847009 34.24545363 27.84616853 31.6875 31.125 C27.04430448 37.18352761 22.64183719 43.35866502 18.375 49.6875 C13.75405988 56.53279926 8.94678771 63.14801878 3.828125 69.62890625 C1.09667135 73.17162498 0.82088851 75.45560847 0.57421875 79.9296875 C1.20362797 82.99011765 2.58398567 84.06213383 5 86 C8.01964704 86.61543017 8.01964704 86.61543017 11.42089844 86.54589844 C13.37246857 86.57547638 13.37246857 86.57547638 15.36346436 86.60565186 C16.77876747 86.6073149 18.19407115 86.60854583 19.609375 86.609375 C21.06099289 86.62435872 22.51259374 86.64108629 23.96417236 86.65948486 C27.77818591 86.70314998 31.59196951 86.72315529 35.40618896 86.73822021 C39.30087883 86.75779458 43.19532047 86.79976412 47.08984375 86.83984375 C54.72649576 86.91513655 62.36304354 86.96543327 70 87 C65.25 91 65.25 91 63 91 C63 91.66 63 92.32 63 93 C58.99137393 94.88660736 55.75861404 95.26616351 51.34545898 95.30639648 C50.69766479 95.31472 50.04987061 95.32304352 49.38244629 95.33161926 C47.25360005 95.35560138 45.12506047 95.36447429 42.99609375 95.37109375 C41.51066499 95.38006533 40.02523713 95.38918727 38.53981018 95.39845276 C35.43219815 95.41491052 32.32469349 95.42263764 29.21704102 95.42553711 C25.23646617 95.43093415 21.25689976 95.46868052 17.27661037 95.51428127 C14.21137293 95.54402204 11.14638001 95.55125991 8.08101082 95.55226326 C6.61336687 95.55646745 5.14572232 95.56890999 3.67822075 95.58978081 C1.62643782 95.61665245 -0.42298428 95.61188755 -2.47485352 95.59936523 C-4.22428001 95.60697121 -4.22428001 95.60697121 -6.00904846 95.61473083 C-9 95 -9 95 -11.37315369 92.70228577 C-13.54992097 89.08654947 -13.85873217 86.05374898 -13 82 C-11.70271725 79.19518029 -9.98636884 76.8325137 -8.125 74.375 C-7.38648804 73.35599609 -7.38648804 73.35599609 -6.63305664 72.31640625 C-5.61065192 70.90722959 -4.58102873 69.50326336 -3.54443359 68.10449219 C-2.03157026 66.04301859 -0.56598493 63.95575446 0.88671875 61.8515625 C1.77850341 60.5676094 2.6704244 59.28375098 3.5625 58 C3.97935059 57.39462402 4.39620117 56.78924805 4.82568359 56.16552734 C5.83387146 54.74036 6.91075646 53.36421892 8 52 C8.66 52 9.32 52 10 52 C10.185625 51.195625 10.37125 50.39125 10.5625 49.5625 C12.16011811 45.60318556 14.22409214 42.91586184 16.90454102 39.63305664 C19.09913914 36.87542635 21.17781426 34.05543578 23.2421875 31.19921875 C23.94972168 30.22170654 24.65725586 29.24419434 25.38623047 28.23706055 C25.91877441 27.49883057 26.45131836 26.76060059 27 26 C26.09233887 25.98541748 25.18467773 25.97083496 24.24951172 25.95581055 C20.8609069 25.89451851 17.47308311 25.82032424 14.08496094 25.73754883 C12.62250292 25.70442865 11.15992105 25.67635695 9.69726562 25.65356445 C7.58670597 25.61977825 5.47726814 25.5674562 3.3671875 25.51171875 C2.09987793 25.48553467 0.83256836 25.45935059 -0.47314453 25.43237305 C-4.27664104 24.96608533 -6.74068065 23.98434141 -10 22 C-12.44085649 18.39177736 -12.43253397 14.50359374 -11.8828125 10.2890625 C-9.94963789 5.27649472 -4.64679603 2.32339802 0 0 Z " fill="#F8AA36" transform="translate(187,63)"/>
<path d="M0 0 C8.15275513 3.37528875 12.02174513 14.46167269 15.875 21.875 C16.37257813 22.81085938 16.87015625 23.74671875 17.3828125 24.7109375 C17.85203125 25.608125 18.32125 26.5053125 18.8046875 27.4296875 C19.43866455 28.63987549 19.43866455 28.63987549 20.08544922 29.87451172 C21 32 21 32 21 35 C6.48 35 -8.04 35 -23 35 C-22.01348499 31.05393995 -21.13590748 29.53281873 -18.75 26.375 C-18.04230469 25.42496094 -17.33460938 24.47492188 -16.60546875 23.49609375 C-16.20118652 22.95581543 -15.7969043 22.41553711 -15.38037109 21.85888672 C-12.5724273 18.0775489 -9.82157526 14.25454942 -7.0625 10.4375 C-6.48274414 9.63940918 -5.90298828 8.84131836 -5.30566406 8.01904297 C-4.76264648 7.26896973 -4.21962891 6.51889648 -3.66015625 5.74609375 C-3.17168213 5.07247803 -2.68320801 4.3988623 -2.17993164 3.70483398 C-0.94244594 2.00263243 -0.94244594 2.00263243 0 0 Z " fill="#FCCA4E" transform="translate(467,112)"/>
<path d="M0 0 C17.82 0.33 35.64 0.66 54 1 C53.67 2.32 53.34 3.64 53 5 C52.505 4.01 52.505 4.01 52 3 C51.42228348 3.00444122 50.84456696 3.00888245 50.24934387 3.01345825 C44.2309517 3.05774022 38.21260589 3.08788667 32.1940918 3.10986328 C29.94862996 3.11991444 27.70318119 3.13355744 25.45776367 3.15087891 C22.22832003 3.17516581 18.99904962 3.18649207 15.76953125 3.1953125 C14.76727005 3.20563507 13.76500885 3.21595764 12.7323761 3.22659302 C11.79177841 3.22674408 10.85118073 3.22689514 9.88208008 3.22705078 C8.64630974 3.23371262 8.64630974 3.23371262 7.38557434 3.24050903 C4.64446521 2.96415566 2.50281751 2.12412163 0 1 C0 0.67 0 0.34 0 0 Z " fill="#747E73" transform="translate(398,70)"/>
</svg>
